<?xml version="1.0" ?><svg viewBox="3084 1263 120 120" xmlns="http://www.w3.org/2000/svg"><defs><style>
      .cls-1 {
        fill: #ff5419;
      }

      .cls-2 {
        fill: #fff;
      }
    </style></defs><g data-name="Group 91" id="Group_91" transform="translate(3011 1165)"><circle class="cls-1" cx="60" cy="60" data-name="Ellipse 64" id="Ellipse_64" r="60" transform="translate(73 98)"/><g data-name="Group 90" id="Group_90" transform="translate(-40 -97.1)"><path class="cls-2" d="M24,.1A23.9,23.9,0,0,1,47.9,24c0,13.2-17.8,19.8-31,19.8L16.5,2C19.112.879,20.66.1,24,.1Z" data-name="Path 190" id="Path_190" transform="translate(159 233)"/><circle class="cls-2" cx="12.5" cy="12.5" data-name="Ellipse 68" id="Ellipse_68" r="12.5" transform="translate(199 252)"/><path class="cls-2" d="M.1.1H36.9V11.9H.1Z" data-name="Path 205" id="Path_205" transform="translate(176 265)"/><path class="cls-2" d="M1,.1c.5,0,.5,1.3.5,1.8l.8,7.5-.8,8.2c0,.5,0,1.3-.5,1.3s-.6-.8-.6-1.3L-.4,9.4.4,2.2C.4,1.7.5.1,1,.1Z" data-name="Path 191" id="Path_191" transform="translate(126 256)"/><path class="cls-2" d="M1,.1c.5,0,.5,1.552.5,2.145l.8,8.936-.8,9.77c0,.592,0,1.549-.5,1.549s-.6-.957-.6-1.549l-.8-9.77L.4,2.6C.4,2.01.5.1,1,.1Z" data-name="Path 192" id="Path_192" transform="translate(130 254.1)"/><path class="cls-2" d="M.793.1c.423,0,.426.839.426,1.159L1.9,6.086l-.682,5.278c0,.32,0,.837-.426.837s-.511-.517-.511-.837L-.4,6.086.281,1.452C.281,1.132.369.1.793.1Z" data-name="Path 193" id="Path_193" transform="translate(122.4 259.3)"/><path class="cls-2" d="M1.156.1c.552,0,.556,1.594.556,2.2L2.6,11.478,1.711,21.51c0,.608,0,1.59-.556,1.59s-.667-.982-.667-1.59L-.4,11.478.489,2.669C.489,2.061.6.1,1.156.1Z" data-name="Path 194" id="Path_194" transform="translate(134 253.7)"/><path class="cls-2" d="M1.156.1c.552,0,.556,1.539.556,2.126L2.6,11.082l-.889,9.683c0,.587,0,1.535-.556,1.535s-.667-.948-.667-1.535L-.4,11.082l.889-8.5C.489,1.993.6.1,1.156.1Z" data-name="Path 195" id="Path_195" transform="translate(138 254.5)"/><path class="cls-2" d="M1.156.1C1.708.1,2,.836,2,1.6l.8,16.3L2,27.8c0,.764-.292,1.4-.844,1.4S.3,28.564.3,27.8l-.7-9.9L.3,1.6C.3.836.6.1,1.156.1Z" data-name="Path 196" id="Path_196" transform="translate(142 247.8)"/><path class="cls-2" d="M1.156.1C1.708.1,2,.932,2,1.8l.8,18.429L2,31.417C2,32.281,1.708,33,1.156,33S.3,32.281.3,31.417L-.4,20.224.3,1.8C.3.932.6.1,1.156.1Z" data-name="Path 197" id="Path_197" transform="translate(146 244)"/><path class="cls-2" d="M1.4,0c.7-.1,1,.689,1,1.6l.7,20.224L2.4,33.213c0,.911-.448,1.687-1,1.687s-.9-.882-.9-1.793L-.1,21.613.4,1.9C.4.989.7.1,1.4,0Z" data-name="Path 198" id="Path_198" transform="translate(150 242.2)"/><path class="cls-2" d="M1.4,0c.7-.1,1,.7,1,1.636l.9,22.455-.9,9.874c0,.932-.448,1.726-1,1.726s-.9-.9-.9-1.833l-.6-9.767L.4,1.943C.4,1.012.7.1,1.4,0Z" data-name="Path 199" id="Path_199" transform="translate(154.1 241.409)"/><path class="cls-2" d="M1.4,0c.7-.1,1,.7,1,1.618l.9,22.2-.9,9.764c0,.921-.448,1.706-1,1.706S.5,34.4.5,33.479l-.6-9.657.5-21.9C.4,1,.7.1,1.4,0Z" data-name="Path 200" id="Path_200" transform="translate(158.4 241.809)"/><path class="cls-2" d="M1.488,0C2.23-.1,2.547.683,2.547,1.586L3.5,23.349l-.953,9.57c0,.9-.474,1.672-1.059,1.672s-.953-.874-.953-1.777L-.1,23.349.429,1.883C.429.98.747.1,1.488,0Z" data-name="Path 201" id="Path_201" transform="translate(162.6 242.509)"/><path class="cls-2" d="M1.576,0C2.359-.11,3,.781,3,1.791l.7,24.325-.387,6.014L3,36.991a1.567,1.567,0,0,1-1.3,1.7c-.617,0-1.1-.69-1.1-1.7L-.1,26.117.459,2.107C.459,1.1.794.112,1.576,0Z" data-name="Path 202" id="Path_202" transform="translate(166.7 238.409)"/><path class="cls-2" d="M1.576,0C2.359-.116,3,.83,3,1.9l.7,25.834-.387,6.387L3,39.286c0,1.073-.683,1.805-1.3,1.805a1.237,1.237,0,0,1-1.3-1.4l-.7-10.3L.459,2.239C.459,1.166.794.119,1.576,0Z" data-name="Path 203" id="Path_203" transform="translate(171.1 236.008)"/></g></g></svg>